<svg width="14" height="14" viewBox="0 0 14 14" fill="none" xmlns="http://www.w3.org/2000/svg">
<path d="M13.0317 5.44258L11.8651 4.85925C11.6492 4.75425 11.3809 4.83591 11.2759 5.05175C11.1651 5.27341 11.2526 5.53591 11.4684 5.64091L12.3959 6.10175V8.89591L10.2084 8.90175V2.91675C10.2084 1.75008 9.42675 1.16675 8.45841 1.16675H3.79175C2.82341 1.16675 2.04175 1.75008 2.04175 2.91675V12.3959H1.16675C0.927581 12.3959 0.729248 12.5942 0.729248 12.8334C0.729248 13.0726 0.927581 13.2709 1.16675 13.2709H11.0834C11.3226 13.2709 11.5209 13.0726 11.5209 12.8334C11.5209 12.5942 11.3226 12.3959 11.0834 12.3959H10.2084V9.77675L12.8334 9.77091C13.0784 9.77091 13.2709 9.57258 13.2709 9.33341V5.83341C13.2709 5.67008 13.1776 5.51841 13.0317 5.44258ZM3.50008 4.01925C3.50008 3.20841 3.99591 2.91675 4.60258 2.91675H7.65341C8.25425 2.91675 8.75008 3.20841 8.75008 4.01925V4.73675C8.75008 5.54175 8.25425 5.83341 7.64758 5.83341H4.60258C3.99591 5.83341 3.50008 5.54175 3.50008 4.73091V4.01925ZM3.79175 7.14591H5.54175C5.78091 7.14591 5.97925 7.34425 5.97925 7.58341C5.97925 7.82258 5.78091 8.02091 5.54175 8.02091H3.79175C3.55258 8.02091 3.35425 7.82258 3.35425 7.58341C3.35425 7.34425 3.55258 7.14591 3.79175 7.14591Z" fill="#90A3BF"/>
</svg>
